<?xml version="1.0" standalone="no"?><!DOCTYPE svg PUBLIC "-//W3C//DTD SVG 1.1//EN" "http://www.w3.org/Graphics/SVG/1.1/DTD/svg11.dtd"><svg t="1494217813466" class="icon" style="" viewBox="0 0 1024 1024" version="1.1" xmlns="http://www.w3.org/2000/svg" p-id="1528" xmlns:xlink="http://www.w3.org/1999/xlink" width="32" height="32"><defs><style type="text/css"></style></defs><path d="M567.557447 365.32834c-63.182979-34.03166-133.90434-30.371404-176.258724 11.939405-11.067915 11.067915-19.652085 24.227404-25.534638 39.129872-20.697872 52.768681-73.205106 87.105362-133.817191 87.497532-49.195574 0.305021-91.680681 16.906894-122.792851 48.019064-77.736851 77.736851-59.653447 222.316936 40.306383 322.233191 70.067745 70.111319 166.585191 102.530723 246.065021 82.747915 15.294638-3.878128 30.894298 5.533957 34.728851 20.87217 3.834553 15.338213-5.533957 30.894298-20.87217 34.728851a260.270298 260.270298 0 0 1-62.965107 7.625532c-82.965787 0-169.635404-37.604766-237.480851-105.450212-122.313532-122.269957-140.396936-303.191149-40.306383-403.281703 41.395745-41.395745 99.262638-64.403064 163.012085-64.838808 36.994723-0.217872 68.716936-20.262128 80.787064-51.112851 8.758468-22.222979 21.656511-42.005787 38.345532-58.738383 63.836596-63.836596 169.59183-68.324766 258.048-12.593021l184.014979-184.058554c-4.313872-10.370723-2.265872-22.833021 6.187574-31.242893l6.405447-6.361873a28.563064 28.563064 0 0 1 37.386894-37.430468l12.810893-12.810893c-4.357447-10.501447-2.309447-22.876596 6.144-31.286468 8.453447-8.497021 20.87217-10.501447 31.286468-6.144l6.361873-6.361873c10.719319-10.806468 29.761362-10.806468 40.524255-0.043574l75.296681 75.296681c11.155064 11.198638 11.155064 29.369191 0 40.524255l-4.575319 4.575319c4.618894 10.24 2.614468 22.92017-5.969702 31.504341a28.650213 28.650213 0 0 1-20.262128 8.409872c-3.878128 0-7.79983-0.78434-11.285787-2.44017l-14.553873 14.553872c4.401021 10.501447 2.309447 22.876596-6.144 31.286468a28.323404 28.323404 0 0 1-20.218553 8.366298c-3.660255 0-7.364085-0.697191-11.02434-2.222298l-6.361873 6.361873a28.515132 28.515132 0 0 1-31.286468 6.231148L699.500936 414.828936c55.775319 88.45617 51.243574 194.16783-12.593021 258.048-16.689021 16.645447-36.47183 29.543489-58.738383 38.301958-30.850723 12.070128-50.894979 43.79234-51.156426 80.830638-0.174298 31.199319-5.621106 60.786383-16.122553 87.889702-5.75183 14.771745-22.353702 21.961532-37.038298 16.384a28.632783 28.632783 0 0 1-16.427574-37.038298c8.017702-20.654298 12.157277-43.40017 12.288-67.627574 0.39217-60.568511 34.728851-113.119319 87.497532-133.773617 14.946043-5.882553 28.105532-14.423149 39.173447-25.534639 42.049362-42.005787 45.84034-112.204255 11.80868-176.128l-155.299404 155.25583c-2.048 18.257702-9.804255 34.903149-23.007319 48.106213-15.425362 15.425362-35.992511 23.965957-57.910468 23.965957-21.874383 0-42.441532-8.540596-57.910468-24.009532-31.896511-31.896511-31.940085-83.837277 0-115.777361 12.68017-12.68017 29.194894-20.174979 47.365447-22.266553l156.127319-156.12732z m-233.384851 402.976681c-7.364085 0-14.684596-2.788766-20.262128-8.366298l-50.197787-50.197787a28.584851 28.584851 0 0 1 0-40.480681 28.584851 28.584851 0 0 1 40.480681-0.043574l50.241361 50.154213a28.715574 28.715574 0 0 1 0 40.524255 28.724289 28.724289 0 0 1-20.262127 8.409872z m92.726468-190.333276l-4.923915-0.958639c-6.579745 0-12.767319 2.570894-17.386213 7.233362-9.586383 9.542809-9.586383 25.142468 0 34.728851 9.281362 9.368511 25.491064 9.324936 34.772426 0.043575 6.405447-6.405447 8.540596-15.468936 6.056851-23.39949l-1.394383-4.183149-4.662468-7.233361-7.451234-4.749617-5.011064-1.481532z m206.020085-196.956596l-0.087149 0.130723-157.957447 157.913873c1.742979 1.481532 3.398809 3.006638 5.011064 4.618893 1.65583 1.65583 3.180936 3.31166 4.618894 5.054639l158.001021-158.001022 0.043574-0.043574 219.223149-219.179575a28.68943 28.68943 0 0 1 31.286468-6.144l6.361873-6.405446h0.043574l54.990979-55.034554-34.772426-34.772425-4.836766 4.793191-0.043574 0.087149-0.043574 0.043575-56.472511 56.516085c4.313872 10.370723 2.265872 22.789447-6.231149 31.286468l-219.136 219.136z" fill="#000000" p-id="1529"></path></svg>