<?xml version="1.0" standalone="no"?><!DOCTYPE svg PUBLIC "-//W3C//DTD SVG 1.1//EN" "http://www.w3.org/Graphics/SVG/1.1/DTD/svg11.dtd"><svg t="1494155830931" class="icon" style="" viewBox="0 0 1024 1024" version="1.1" xmlns="http://www.w3.org/2000/svg" p-id="1848" xmlns:xlink="http://www.w3.org/1999/xlink" width="32" height="32"><defs><style type="text/css"></style></defs><path d="M957.725929 523.872399c-10.998946 11.491729-11.76134 10.558473-45.118396 10.558473l-65.871896 0.010233 0 344.488869c0 52.571333-27.796182 83.272565-78.636117 83.272565l-92.083935 0-35.70564-0.671289L640.309947 663.85864c0-35.786041-18.545115-44.781926-39.779588-44.781926L437.096546 619.076714c-23.844011 0-42.709434 9.958816-42.709434 43.092447l0 299.748898-47.406602 0.282433-80.302128 0c-48.269284 0-78.616673-27.386744-78.616673-88.283696L188.061709 534.587438l-67.837747 0.010233c-35.786484 0-37.893558-5.52483-46.424188-15.925714-16.919015-20.551058-15.956044-46.155203 27.034811-81.543178l377.084341-350.779132c11.160635-8.483208 22.400067-25.007557 36.649166-25.007557l5.962026 0c14.249099 0 25.507975 13.116739 36.666563 21.588691l373.473969 354.029152C966.638267 460.899158 980.125996 500.470409 957.725929 523.872399z" p-id="1849"></path></svg>