<?xml version="1.0" standalone="no"?><!DOCTYPE svg PUBLIC "-//W3C//DTD SVG 1.1//EN" "http://www.w3.org/Graphics/SVG/1.1/DTD/svg11.dtd"><svg t="1494217875374" class="icon" style="" viewBox="0 0 1024 1024" version="1.1" xmlns="http://www.w3.org/2000/svg" p-id="2239" xmlns:xlink="http://www.w3.org/1999/xlink" width="48" height="48"><defs><style type="text/css"></style></defs><path d="M0 154.790698l0 712.132465 87.016186 0 0-516.096c-1.000186-30.005581-3.000558-61.011349-3.000558-92.017116l4.000744 0c9.001674 84.015628 15.002791 164.030512 32.005953 252.046884l50.009302 356.066233 157.029209 0 0-712.132465-87.016186 0 0 362.067349c0 69.012837 4.000744 139.02586 3.000558 208.038698l0 38.00707-4.000744 0c-9.001674-134.02493-26.004837-271.050419-50.009302-403.074977l-30.005581-205.03814-159.029581 0ZM492.091535 235.805767l24.004465 0c27.005023 0 38.00707 12.002233 38.00707 53.00986l0 108.020093c0 41.007628-11.002047 53.00986-38.00707 53.00986l-24.004465 0 0-214.039814ZM386.071814 866.923163l149.027721 0c89.016558 0 128.023814-65.012093 128.023814-150.027907l0-113.021023c0-80.014884-34.006326-98.018233-101.018791-111.020651l0-2.000372c61.011349-14.002605 97.018047-33.00614 98.018233-95.017674l0-113.021023c0-76.01414-39.007256-128.023814-124.02307-128.023814l-150.027907 0 0 712.132465ZM492.091535 534.861395l21.003907 0c30.005581 0 44.008186 12.002233 44.008186 56.010419l0 135.025116c0 44.008186-14.002605 56.010419-44.008186 56.010419l-21.003907 0 0-247.045953ZM826.153674 580.869953l26.004837-296.05507 7.001302 0 22.004093 296.05507-55.010233 0ZM697.129674 866.923163l96.01786 0 23.004279-193.035907 75.013953 0 20.003721 193.035907 107.019907 0-81.01507-712.132465-159.029581 0-81.01507 712.132465Z" p-id="2240"></path></svg>