<?xml version="1.0" standalone="no"?><!DOCTYPE svg PUBLIC "-//W3C//DTD SVG 1.1//EN" "http://www.w3.org/Graphics/SVG/1.1/DTD/svg11.dtd"><svg t="1494254674162" class="icon" style="" viewBox="0 0 1024 1024" version="1.1" xmlns="http://www.w3.org/2000/svg" p-id="4596" xmlns:xlink="http://www.w3.org/1999/xlink" width="128" height="128"><defs><style type="text/css"></style></defs><path d="M715.978694 95.886861 200.913892 95.886861c0 0-64.809051 0.820692-73.678046 74.498738l0 684.932608c0 0-0.682545 78.932724 87.321788 78.932724l599.657432 0c0 0 69.584821-3.89061 75.042113-75.522044L889.25718 304.780495l-76.407204 57.305147-1.364067 495.2802-607.843882-0.682545L203.642027 171.750689l456.394564 0L715.978694 95.886861z" p-id="4597"></path><path d="M780.958638 132.182508l80.84119 62.933331 16.884552-22.512736c0 0 12.791327-16.884552 0-37.350676 0 0-11.768021-19.442818-31.722492-30.699186 0 0-27.117614-14.83794-45.025473 3.069919L780.958638 132.182508z" p-id="4598"></path><path d="M836.217173 228.373291l-137.634684 182.660156c0 0-12.279674 22.512736-33.769105 32.745798l-60.886719 29.164227c0 0-16.372899 8.18645-19.954471-14.326287l10.744715-67.026556c0 0-1.023306-12.279674 15.349593-33.769105l145.821133-192.893218L836.217173 228.373291z" p-id="4599"></path><path d="M326.610686 571.180867l360.715435 0c0 0 11.768021-3.069919 11.256368 16.884552l0.016373 33.769105c0 0-2.574638 9.209756-16.389272 7.163143l-352.017332 0.296759c0 0-12.279674 0.726547-13.302981-11.041474l0-38.885636C316.889277 579.367317 318.935889 571.180867 326.610686 571.180867z" p-id="4600"></path><path d="M326.610686 705.233979l360.715435 0c0 0 11.768021-3.069919 11.256368 16.884552l0.016373 33.769105c0 0-2.574638 9.209756-16.389272 7.163143l-352.017332 0.296759c0 0-12.279674 0.726547-13.302981-11.041474l0-38.885636C316.889277 713.420429 318.935889 705.233979 326.610686 705.233979z" p-id="4601"></path></svg>