<?xml version="1.0" standalone="no"?><!DOCTYPE svg PUBLIC "-//W3C//DTD SVG 1.1//EN" "http://www.w3.org/Graphics/SVG/1.1/DTD/svg11.dtd"><svg t="1494255199490" class="icon" style="" viewBox="0 0 1024 1024" version="1.1" xmlns="http://www.w3.org/2000/svg" p-id="6363" xmlns:xlink="http://www.w3.org/1999/xlink" width="128" height="128"><defs><style type="text/css"></style></defs><path d="M743.05746 584.806635 192.223843 584.806635c-19.749375 0-35.81493 16.065554-35.81493 35.81493s16.065554 35.81493 35.81493 35.81493l550.935945 0c19.749375 0 35.81493-16.065554 35.81493-35.81493S762.909164 584.806635 743.05746 584.806635z" p-id="6364"></path><path d="M193.247127 212.945338l440.625962 0c19.749375 0 35.81493-16.065554 35.81493-35.81493s-16.065554-35.81493-35.81493-35.81493L193.247127 141.315479c-19.749375 0-35.81493 16.065554-35.81493 35.81493S173.497752 212.945338 193.247127 212.945338z" p-id="6365"></path><path d="M574.522634 806.654542 195.60068 806.654542c-19.749375 0-35.81493 16.065554-35.81493 35.81493s16.065554 35.81493 35.81493 35.81493l378.921955 0c19.749375 0 35.81493-16.065554 35.81493-35.81493S594.27201 806.654542 574.522634 806.654542z" p-id="6366"></path><path d="M850.706905 363.061057 193.349455 363.061057c-19.749375 0-35.81493 16.065554-35.81493 35.81493s16.065554 35.81493 35.81493 35.81493l657.255121 0c19.749375 0 35.81493-16.065554 35.81493-35.81493S870.456281 363.061057 850.706905 363.061057z" p-id="6367"></path></svg>