<?xml version="1.0" standalone="no"?><!DOCTYPE svg PUBLIC "-//W3C//DTD SVG 1.1//EN" "http://www.w3.org/Graphics/SVG/1.1/DTD/svg11.dtd"><svg t="1494255010591" class="icon" style="" viewBox="0 0 1024 1024" version="1.1" xmlns="http://www.w3.org/2000/svg" p-id="5557" xmlns:xlink="http://www.w3.org/1999/xlink" width="128" height="128"><defs><style type="text/css"></style></defs><path d="M749.324 378.213H499.348c-12.543 0-22.278 9.734-22.278 22.277s9.733 22.279 22.278 22.279h249.875c11.84 0 22.277-9.734 22.375-22.28 0.002-12.542-9.731-22.276-22.274-22.276zM269.547 546h479.678c11.84 0 22.277-9.733 22.277-22.277 0-12.545-9.735-22.278-22.277-22.278H269.547c-12.544 0-22.28 9.733-22.28 22.278 0 12.544 9.734 22.277 22.28 22.277z m229.099-249.27h250.577c11.84 0 22.277-9.734 22.277-22.277s-9.735-22.28-22.277-22.28H498.646c-12.543 0-22.279 9.736-22.279 22.28 0.002 12.54 9.736 22.276 22.279 22.276z" fill="" p-id="5558"></path><path d="M882.89 745.99a21.659 21.659 0 0 0 0-7.233V129.643c0-36.928-29.903-66.833-66.834-66.833H206.225c-36.93 0-66.835 29.905-66.835 66.833v765.174c0 36.93 29.905 66.834 66.835 66.834h475.464l3.355-3.508a25.678 25.678 0 0 0 4.371-3.516L877.27 757.638a24.186 24.186 0 0 0 1.885-2.416l3.733-3.903v-5.329zM173.524 894.817V129.643c0-18.03 14.67-32.699 32.7-32.699h609.832c18.03 0 32.7 14.669 32.7 32.699V720.71H717.211c-36.927 0-66.834 29.903-66.834 66.83v139.977H206.225c-18.033 0-32.701-14.669-32.701-32.701z m510.986 14.506V787.54c0-18.028 14.67-32.696 32.701-32.696h115.068L684.51 909.323z" fill="" p-id="5559"></path><path d="M298.045 398.383h84.194c27.798 0 50.076-22.98 50.076-50.075 0-22.981-16.055-43.15-38.334-48.77 9.032-11.14 13.948-25.086 13.948-39.639 0-35.524-29.202-65.429-65.427-65.429-36.227 0-65.43 29.203-65.43 65.43 0 14.65 4.918 27.797 13.248 38.936-22.78 2.81-42.348 23.683-42.348 49.472-0.002 27.796 22.98 50.075 50.073 50.075z m46.06-176.818c20.874 0 38.335 17.36 38.335 38.334 0 20.872-17.36 38.335-38.334 38.335-20.973 0-38.335-17.362-38.335-38.335 0-20.873 17.463-38.334 38.335-38.334z m-45.96 103.06h84.196c13.246 0 22.98 10.435 22.98 22.98s-10.439 22.98-22.98 22.98h-84.196c-13.245 0-22.979-10.436-22.979-22.98s9.734-22.98 22.98-22.98z m297.945 306.27H271.654c-12.543 0-22.279 9.734-22.279 22.28 0 12.543 9.736 22.278 22.279 22.278H596.09c11.839 0 22.276-9.735 22.276-22.279-0.002-12.545-9.733-22.278-22.276-22.278z" fill="" p-id="5560"></path></svg>