<?xml version="1.0" standalone="no"?><!DOCTYPE svg PUBLIC "-//W3C//DTD SVG 1.1//EN" "http://www.w3.org/Graphics/SVG/1.1/DTD/svg11.dtd"><svg t="1494309496749" class="icon" style="" viewBox="0 0 1024 1024" version="1.1" xmlns="http://www.w3.org/2000/svg" p-id="3047" xmlns:xlink="http://www.w3.org/1999/xlink" width="128" height="128"><defs><style type="text/css"></style></defs><path d="M503.409778 10.869343C231.111983 10.869343 10.372741 231.609609 10.372741 503.90638 10.372741 776.203112 231.113007 996.943417 503.409778 996.943417 775.636992 996.943417 996.446815 776.203112 996.446815 503.90638 996.446815 231.608585 775.63392 10.869343 503.409778 10.869343L503.409778 10.869343ZM412.696311 593.65194C407.581696 588.838495 403.845954 585.127443 399.91899 581.657297 301.654319 494.87561 294.588568 309.143021 385.951289 213.931349 458.418783 138.410591 560.767355 147.381665 624.925886 232.908762 699.975035 332.94829 685.37545 507.798718 590.954079 584.395169 588.64109 586.273792 586.613191 588.552799 581.686386 593.325852 599.400107 601.044499 615.201071 608.510635 631.391308 614.868689 670.337934 630.155226 709.486023 644.86821 748.516959 659.918089 789.880073 675.865486 810.238483 709.778811 806.347169 755.992614 804.092435 782.760846 786.654891 802.436589 761.317566 806.108008 753.704922 807.216128 745.910651 807.253637 738.20342 807.25724 581.922816 807.320007 425.646308 807.384936 269.369799 807.128102 258.238654 807.105726 246.416725 806.681524 236.103187 802.881005 198.046113 788.862748 187.251484 728.653748 217.432026 692.274555 228.661855 678.736782 244.201055 667.398675 259.893741 660.06528 303.278535 639.782078 347.785937 622.169619 391.819074 603.419458 398.250894 600.679462 404.514816 597.494291 412.696311 593.65194L412.696311 593.65194Z" p-id="3048"></path></svg>